HIERARCHY
ROOT pelvis
{
	OFFSET 0.003123 -0.351407 0.012037
	CHANNELS 6 Xposition Yposition Zposition Zrotation Yrotation Xrotation 
	JOINT left_hip
	{
		OFFSET 0.058189 -0.092763 -0.026001
		CHANNELS 3 Zrotation Yrotation Xrotation
		JOINT left_knee
		{
			OFFSET 0.054695 -0.378753 -0.009396
			CHANNELS 3 Zrotation Yrotation Xrotation
			JOINT left_ankle
			{
				OFFSET -0.043453 -0.403059 -0.031876
				CHANNELS 3 Zrotation Yrotation Xrotation
				JOINT left_foot
				{
					OFFSET 0.047257 -0.057997 0.118216
					CHANNELS 3 Zrotation Yrotation Xrotation
					End Site
					{
						OFFSET 0.000000 0.000000 0.000000
					}
				}
			}
		}
	}
	JOINT right_hip
	{
		OFFSET -0.063267 -0.103908 -0.021250
		CHANNELS 3 Zrotation Yrotation Xrotation
		JOINT right_knee
		{
			OFFSET -0.044210 -0.362380 -0.016824
			CHANNELS 3 Zrotation Yrotation Xrotation
			JOINT right_ankle
			{
				OFFSET 0.015417 -0.410728 -0.020192
				CHANNELS 3 Zrotation Yrotation Xrotation
				JOINT right_foot
				{
					OFFSET -0.038812 -0.058328 0.119049
					CHANNELS 3 Zrotation Yrotation Xrotation
					End Site
					{
						OFFSET 0.000000 0.000000 0.000000
					}
				}
			}
		}
	}
	JOINT spine_1
	{
		OFFSET -0.002763 0.109891 -0.027618
		CHANNELS 3 Zrotation Yrotation Xrotation
		JOINT spine_2
		{
			OFFSET 0.009448 0.131853 -0.005940
			CHANNELS 3 Zrotation Yrotation Xrotation
			JOINT spine_3
			{
				OFFSET -0.011330 0.052235 0.028447
				CHANNELS 3 Zrotation Yrotation Xrotation
				JOINT neck
				{
					OFFSET -0.012164 0.165167 -0.031615
					CHANNELS 3 Zrotation Yrotation Xrotation
					JOINT head
					{
						OFFSET 0.024783 0.160452 0.020737
						CHANNELS 3 Zrotation Yrotation Xrotation
						End Site
						{
							OFFSET 0.000000 0.000000 0.000000
						}
					}
				}
				JOINT left_collar
				{
					OFFSET 0.046364 0.084944 -0.007220
					CHANNELS 3 Zrotation Yrotation Xrotation
					JOINT left_shoulder
					{
						OFFSET 0.119239 0.057728 -0.015461
						CHANNELS 3 Zrotation Yrotation Xrotation
						JOINT left_elbow
						{
							OFFSET 0.254123 -0.072151 -0.042459
							CHANNELS 3 Zrotation Yrotation Xrotation
							JOINT left_wrist
							{
								OFFSET 0.251987 0.023221 -0.002472
								CHANNELS 3 Zrotation Yrotation Xrotation
								JOINT left_index_1
								{
									OFFSET 0.101902 -0.008688 0.019351
									CHANNELS 3 Zrotation Yrotation Xrotation
									JOINT left_index_2
									{
										OFFSET 0.030149 -0.011154 0.001151
										CHANNELS 3 Zrotation Yrotation Xrotation
										JOINT left_index_3
										{
											OFFSET 0.006504 -0.021577 -0.002433
											CHANNELS 3 Zrotation Yrotation Xrotation
											End Site
											{
												OFFSET 0.000000 0.000000 0.000000
											}
										}
									}
								}
								JOINT left_middle_1
								{
									OFFSET 0.109398 -0.006328 -0.003981
									CHANNELS 3 Zrotation Yrotation Xrotation
									JOINT left_middle_2
									{
										OFFSET 0.026472 -0.015218 -0.004641
										CHANNELS 3 Zrotation Yrotation Xrotation
										JOINT left_middle_3
										{
											OFFSET 0.005022 -0.023347 -0.001911
											CHANNELS 3 Zrotation Yrotation Xrotation
											End Site
											{
												OFFSET 0.000000 0.000000 0.000000
											}
										}
									}
								}
								JOINT left_pinky_1
								{
									OFFSET 0.084047 -0.014539 -0.043750
									CHANNELS 3 Zrotation Yrotation Xrotation
									JOINT left_pinky_2
									{
										OFFSET 0.012124 -0.014448 -0.005375
										CHANNELS 3 Zrotation Yrotation Xrotation
										JOINT left_pinky_3
										{
											OFFSET 0.003798 -0.018853 0.000167
											CHANNELS 3 Zrotation Yrotation Xrotation
											End Site
											{
												OFFSET 0.000000 0.000000 0.000000
											}
										}
									}
								}
								JOINT left_ring_1
								{
									OFFSET 0.097444 -0.009268 -0.027345
									CHANNELS 3 Zrotation Yrotation Xrotation
									JOINT left_ring_2
									{
										OFFSET 0.023561 -0.016057 -0.001895
										CHANNELS 3 Zrotation Yrotation Xrotation
										JOINT left_ring_3
										{
											OFFSET 0.004257 -0.023548 0.000814
											CHANNELS 3 Zrotation Yrotation Xrotation
											End Site
											{
												OFFSET 0.000000 0.000000 0.000000
											}
										}
									}
								}
								JOINT left_thumb_1
								{
									OFFSET 0.040636 -0.017977 0.025611
									CHANNELS 3 Zrotation Yrotation Xrotation
									JOINT left_thumb_2
									{
										OFFSET 0.021637 -0.017639 0.011623
										CHANNELS 3 Zrotation Yrotation Xrotation
										JOINT left_thumb_3
										{
											OFFSET 0.024002 -0.008356 0.006548
											CHANNELS 3 Zrotation Yrotation Xrotation
											End Site
											{
												OFFSET 0.000000 0.000000 0.000000
											}
										}
									}
								}
							}
						}
					}
				}
				JOINT right_collar
				{
					OFFSET -0.047695 0.084339 -0.013400
					CHANNELS 3 Zrotation Yrotation Xrotation
					JOINT right_shoulder
					{
						OFFSET -0.102578 0.053524 -0.012669
						CHANNELS 3 Zrotation Yrotation Xrotation
						JOINT right_elbow
						{
							OFFSET -0.271150 -0.036492 -0.026467
							CHANNELS 3 Zrotation Yrotation Xrotation
							JOINT right_wrist
							{
								OFFSET -0.249267 -0.004533 -0.015325
								CHANNELS 3 Zrotation Yrotation Xrotation
								JOINT right_index_1
								{
									OFFSET -0.099881 -0.011783 0.019600
									CHANNELS 3 Zrotation Yrotation Xrotation
									JOINT right_index_2
									{
										OFFSET -0.030148 -0.011154 0.001151
										CHANNELS 3 Zrotation Yrotation Xrotation
										JOINT right_index_3
										{
											OFFSET -0.006505 -0.021577 -0.002432
											CHANNELS 3 Zrotation Yrotation Xrotation
											End Site
											{
												OFFSET 0.000000 0.000000 0.000000
											}
										}
									}
								}
								JOINT right_middle_1
								{
									OFFSET -0.107376 -0.009422 -0.003734
									CHANNELS 3 Zrotation Yrotation Xrotation
									JOINT right_middle_2
									{
										OFFSET -0.026472 -0.015218 -0.004641
										CHANNELS 3 Zrotation Yrotation Xrotation
										JOINT right_middle_3
										{
											OFFSET -0.005022 -0.023347 -0.001911
											CHANNELS 3 Zrotation Yrotation Xrotation
											End Site
											{
												OFFSET 0.000000 0.000000 0.000000
											}
										}
									}
								}
								JOINT right_pinky_1
								{
									OFFSET -0.082027 -0.017634 -0.043503
									CHANNELS 3 Zrotation Yrotation Xrotation
									JOINT right_pinky_2
									{
										OFFSET -0.012123 -0.014448 -0.005374
										CHANNELS 3 Zrotation Yrotation Xrotation
										JOINT right_pinky_3
										{
											OFFSET -0.003798 -0.018852 0.000167
											CHANNELS 3 Zrotation Yrotation Xrotation
											End Site
											{
												OFFSET 0.000000 0.000000 0.000000
											}
										}
									}
								}
								JOINT right_ring_1
								{
									OFFSET -0.095423 -0.012362 -0.027099
									CHANNELS 3 Zrotation Yrotation Xrotation
									JOINT right_ring_2
									{
										OFFSET -0.023561 -0.016057 -0.001895
										CHANNELS 3 Zrotation Yrotation Xrotation
										JOINT right_ring_3
										{
											OFFSET -0.004257 -0.023548 0.000816
											CHANNELS 3 Zrotation Yrotation Xrotation
											End Site
											{
												OFFSET 0.000000 0.000000 0.000000
											}
										}
									}
								}
								JOINT right_thumb_1
								{
									OFFSET -0.038613 -0.021074 0.025861
									CHANNELS 3 Zrotation Yrotation Xrotation
									JOINT right_thumb_2
									{
										OFFSET -0.021636 -0.017639 0.011623
										CHANNELS 3 Zrotation Yrotation Xrotation
										JOINT right_thumb_3
										{
											OFFSET -0.024004 -0.008353 0.006547
											CHANNELS 3 Zrotation Yrotation Xrotation
											End Site
											{
												OFFSET 0.000000 0.000000 0.000000
											}
										}
									}
								}
							}
						}
					}
				}
			}
		}
	}
}
MOTION
Frames: 7
Frame Time: 0.050000
0.022994 0.609734 -0.020531 1.699392 -7.258074 -31.032752 30.295444 7.963448 -42.512509 -27.134669 14.864677 76.028590 3.829277 9.202885 3.203235 0.000000 0.000000 0.000000 -28.281463 -3.534056 -50.754691 47.337769 -29.273295 70.417030 -14.673508 -27.518879 10.255381 0.000000 0.000000 0.000000 0.739457 -2.128493 41.037019 -7.975073 -1.947863 -21.172516 9.229985 -2.022147 23.692439 -0.385024 1.217941 -8.245626 0.000000 0.000000 0.000000 21.488861 -5.346410 2.057063 45.207112 -35.979198 -19.638767 57.392801 12.781026 6.202147 30.481645 13.304990 -35.357537 9.256559 -3.186629 0.087267 2.859773 -13.966691 -36.144959 0.000000 0.000000 0.000000 -5.990405 -18.146417 -6.537873 6.724192 -1.558552 -34.714186 0.000000 0.000000 0.000000 6.472812 -18.495874 -25.593452 20.255128 0.262535 3.662559 0.000000 0.000000 0.000000 -7.343818 -16.032341 -7.856764 18.080651 -3.311253 -30.513773 0.000000 0.000000 0.000000 32.599569 5.749970 -11.891903 -16.536976 -9.795652 1.460775 0.000000 0.000000 0.000000 -4.127317 12.909850 6.450753 66.341788 16.831247 -2.323134 24.509052 50.266114 10.072636 -18.802520 -2.458025 29.677796 8.111403 -1.344516 0.402282 -25.784753 4.880386 0.125141 0.000000 0.000000 0.000000 1.159166 1.261659 -0.908453 -12.656422 2.716831 0.058064 0.000000 0.000000 0.000000 -31.961195 5.763427 4.840350 4.320757 -0.349618 -7.329440 0.000000 0.000000 0.000000 -8.522590 0.227941 -0.075624 -8.859748 0.628849 -3.113917 0.000000 0.000000 0.000000 -2.717194 -8.540318 6.941757 1.712609 4.619888 -0.940936 0.000000 0.000000 0.000000 
0.021934 0.611023 -0.020531 1.591233 -7.226505 -30.729772 30.677087 8.100573 -42.473274 -27.511175 15.006166 75.273073 3.797664 9.397352 3.661207 0.000000 0.000000 0.000000 -27.434260 -3.238117 -51.503367 45.757924 -29.066185 72.186970 -13.952144 -26.496138 9.272075 0.000000 0.000000 0.000000 0.748295 -2.138190 40.674139 -7.927499 -1.918506 -20.994111 9.765672 -0.944382 22.568671 -0.758787 1.229449 -7.922307 0.000000 0.000000 0.000000 21.086112 -6.164735 2.480342 46.557929 -36.204707 -20.510668 56.645856 12.282793 5.608320 31.445036 12.764484 -37.704494 6.283133 -5.346178 0.140695 -4.365341 -16.354721 -35.920447 0.000000 0.000000 0.000000 -8.363295 -21.364879 -6.587059 0.522894 -1.548108 -34.008079 0.000000 0.000000 0.000000 8.863787 -16.679628 -23.904836 16.077575 -0.750032 -1.994106 0.000000 0.000000 0.000000 -8.156970 -16.003078 -7.455477 16.393794 -4.346615 -31.174091 0.000000 0.000000 0.000000 34.137180 3.817281 -13.295189 -20.810808 -6.065391 4.089523 0.000000 0.000000 0.000000 -3.390032 12.652713 6.304456 65.562116 13.159938 -3.674548 27.698863 52.122907 12.046935 -19.324043 -1.791863 30.250533 6.216178 -0.289670 0.061243 -27.014222 4.602696 3.365641 0.000000 0.000000 0.000000 -0.964934 2.301523 -1.101905 -17.937964 3.377773 3.503935 0.000000 0.000000 0.000000 -31.732823 6.010455 5.051939 -2.501243 0.141442 -4.796039 0.000000 0.000000 0.000000 -9.987650 -1.982117 1.332103 -14.702731 0.976231 -2.500308 0.000000 0.000000 0.000000 -2.173598 -7.969663 6.453561 4.924844 3.886852 0.538735 0.000000 0.000000 0.000000 
0.022405 0.609734 -0.020531 1.958398 -6.926651 -30.670434 30.679910 8.014421 -42.411971 -28.637273 15.684782 74.318980 4.359119 10.560465 4.063110 0.000000 0.000000 0.000000 -28.282501 -3.686193 -51.629129 45.663312 -29.177627 72.448746 -13.220419 -25.435729 8.810028 0.000000 0.000000 0.000000 0.468209 -2.081227 40.519854 -7.898073 -1.875078 -20.836004 9.541541 -1.081106 22.697273 -0.127898 1.096058 -7.550949 0.000000 0.000000 0.000000 21.654613 -6.426169 2.530853 45.498688 -35.860829 -19.861046 57.376275 13.059215 6.085590 31.216771 12.203470 -37.550664 5.825443 -7.198336 0.050276 -4.439667 -10.812560 -28.477620 0.000000 0.000000 0.000000 -9.620890 -19.130856 -6.012412 1.438315 -1.384722 -33.133504 0.000000 0.000000 0.000000 5.602525 -17.351586 -23.906680 14.821626 -0.637119 -1.644130 0.000000 0.000000 0.000000 -7.845778 -14.304129 -6.673328 13.186064 -6.745985 -35.110010 0.000000 0.000000 0.000000 30.443592 3.183410 -12.441859 -17.695187 -8.878536 2.133884 0.000000 0.000000 0.000000 -3.797012 11.504850 5.788937 67.432958 13.873853 -3.395351 26.259050 50.587458 10.998293 -20.256614 -0.902366 29.193434 5.767680 -0.555390 0.199836 -27.820177 5.172900 -0.599991 0.000000 0.000000 0.000000 -1.518494 3.040411 -1.396884 -16.262861 3.189855 0.049322 0.000000 0.000000 0.000000 -34.228555 8.215672 2.856585 1.383761 0.205958 -8.061701 0.000000 0.000000 0.000000 -10.812071 1.552945 -0.710120 -12.344795 0.876438 -2.712543 0.000000 0.000000 0.000000 -3.913642 -7.880099 5.932752 4.130281 6.181684 -0.415815 0.000000 0.000000 0.000000 
0.021816 0.611023 -0.020531 1.245969 -6.354161 -30.334024 30.874227 7.968670 -43.189118 -28.053261 14.990355 74.699843 3.103742 8.636009 4.386530 0.000000 0.000000 0.000000 -28.890165 -4.118272 -50.594525 47.399721 -29.700089 70.380359 -13.621690 -25.980782 8.618282 0.000000 0.000000 0.000000 1.344206 -2.346320 39.358960 -7.962034 -1.651540 -20.241973 9.044496 -1.598941 23.936620 -0.496613 1.101006 -7.295642 0.000000 0.000000 0.000000 22.147796 -6.524326 2.509185 45.472012 -36.027422 -19.953001 57.601214 13.874875 6.503324 32.377938 13.253628 -35.627190 7.212801 -4.066227 -0.005516 -1.946970 -9.809522 -27.050271 0.000000 0.000000 0.000000 -4.520989 -16.076840 -5.869746 0.577629 -3.216531 -32.081927 0.000000 0.000000 0.000000 9.465098 -14.833306 -20.912232 14.666915 0.361638 2.428228 0.000000 0.000000 0.000000 -5.959813 -11.901355 -5.752204 13.020779 -6.378631 -35.217745 0.000000 0.000000 0.000000 31.254533 5.840954 -11.272938 -18.493656 -10.351717 2.111056 0.000000 0.000000 0.000000 -3.016280 11.816715 5.923813 66.442435 14.987680 -2.855644 25.142880 51.256085 10.668886 -20.685674 -2.997375 28.949348 5.510258 1.203391 -0.422115 -24.487090 4.327340 2.561003 0.000000 0.000000 0.000000 -0.869554 3.299627 -1.606118 -15.788927 3.072877 1.959447 0.000000 0.000000 0.000000 -32.127495 5.844447 5.448422 -0.122546 0.435042 -9.204171 0.000000 0.000000 0.000000 -10.042949 -0.435891 0.462063 -12.556071 0.803654 -4.223764 0.000000 0.000000 0.000000 -2.167908 -7.357677 5.789010 2.890396 2.547375 0.134052 0.000000 0.000000 0.000000 
0.022994 0.609734 -0.021851 2.083867 -7.536451 -31.086527 30.319257 8.027887 -42.106637 -26.915872 14.777255 75.971782 3.288604 7.863598 2.521362 0.000000 0.000000 0.000000 -28.164307 -3.374996 -50.960606 47.090753 -29.257959 70.974887 -14.628841 -27.441969 9.005554 0.000000 0.000000 0.000000 0.467085 -2.028829 41.484003 -8.117399 -1.982214 -21.422424 9.460709 -1.874826 23.614488 -0.717328 1.174122 -7.676757 0.000000 0.000000 0.000000 21.607246 -5.249737 2.018670 44.523940 -35.871088 -19.352098 57.259577 12.234417 5.977630 30.354013 13.167732 -34.927165 9.512666 -3.061790 0.055848 3.252690 -12.853448 -34.234936 0.000000 0.000000 0.000000 -5.511142 -17.342170 -6.455634 4.540747 -2.314912 -32.539544 0.000000 0.000000 0.000000 8.335152 -17.921813 -25.460660 19.657118 0.368149 4.018846 0.000000 0.000000 0.000000 -7.114495 -15.467795 -7.668261 18.125487 -3.131292 -29.959767 0.000000 0.000000 0.000000 33.384783 6.559139 -11.672975 -18.172531 -10.237814 2.035891 0.000000 0.000000 0.000000 -3.884602 13.886329 6.881775 66.364850 16.046856 -2.695373 24.181345 51.384930 10.237504 -19.969386 -2.218524 29.198619 7.583338 -0.414139 0.116379 -26.453668 4.648221 2.559370 0.000000 0.000000 0.000000 1.313420 1.457912 -1.024608 -16.143435 3.244261 2.025152 0.000000 0.000000 0.000000 -29.990359 3.975731 6.287925 -2.502978 0.299843 -12.183563 0.000000 0.000000 0.000000 -8.287399 -1.249973 0.723039 -12.956637 0.786748 -4.358508 0.000000 0.000000 0.000000 -3.213357 -7.279928 5.481945 3.258654 1.907177 0.434963 0.000000 0.000000 0.000000 
0.021492 0.611023 -0.021851 1.711200 -6.644300 -30.674806 30.077970 7.686819 -42.787671 -27.168261 14.588193 75.317394 3.387585 8.542103 3.379489 0.000000 0.000000 0.000000 -27.968162 -3.647609 -51.170333 45.681562 -29.268232 72.429935 -13.556883 -25.848393 7.703592 0.000000 0.000000 0.000000 0.624925 -2.166895 41.049738 -7.741409 -2.037081 -21.295709 9.770755 -1.078847 22.759528 -0.992151 1.233293 -7.726892 0.000000 0.000000 0.000000 21.193837 -6.517212 2.597793 45.867332 -35.560123 -19.766664 56.626067 12.248418 5.547874 30.568216 12.979892 -36.445290 6.627657 -3.464267 0.135238 -6.503596 -15.746173 -33.584281 0.000000 0.000000 0.000000 -10.278946 -19.290698 -6.139025 3.713407 -0.780264 -32.706697 0.000000 0.000000 0.000000 6.913696 -17.358262 -24.318892 17.769213 -0.645091 -1.517248 0.000000 0.000000 0.000000 -8.470207 -14.412785 -6.655672 13.908243 -5.925023 -33.865342 0.000000 0.000000 0.000000 33.813869 5.200830 -12.522280 -19.255508 -10.135079 2.418693 0.000000 0.000000 0.000000 -3.017904 12.231757 6.106045 65.512882 12.601276 -3.872666 28.697249 52.585252 12.672015 -20.169938 -2.429916 30.400002 4.867501 0.370863 -0.156832 -28.976153 5.120411 0.740039 0.000000 0.000000 0.000000 -3.316951 3.285506 -1.284709 -18.217260 3.332997 4.146033 0.000000 0.000000 0.000000 -35.437755 7.614988 4.087430 -1.823398 0.029116 -3.790870 0.000000 0.000000 0.000000 -13.266795 0.419116 0.065054 -13.925838 1.029019 1.013809 0.000000 0.000000 0.000000 -2.464430 -7.923019 6.320924 5.421323 4.217039 0.624638 0.000000 0.000000 0.000000 
0.021934 0.609734 -0.020531 2.021789 -6.399448 -29.846774 30.276500 7.775423 -43.273253 -28.442920 15.348469 73.987954 3.891083 9.685468 3.891795 0.000000 0.000000 0.000000 -28.832111 -4.123279 -52.042252 45.689068 -29.431005 72.428329 -12.937672 -24.932849 7.513253 0.000000 0.000000 0.000000 0.456739 -2.095016 39.396865 -7.619160 -1.883424 -20.581464 9.294974 -1.347737 23.639287 -0.420567 1.270277 -8.492246 0.000000 0.000000 0.000000 21.987503 -6.156283 2.441295 44.895495 -35.446601 -19.318870 57.690325 13.760223 6.482113 29.455613 12.463514 -39.158319 4.668277 -6.473494 0.304203 -5.578299 -11.396092 -28.681202 0.000000 0.000000 0.000000 -10.924358 -17.352621 -5.502038 0.702923 -1.863111 -33.754432 0.000000 0.000000 0.000000 6.725263 -15.838699 -22.303739 13.904991 -0.880074 -2.357720 0.000000 0.000000 0.000000 -9.179658 -15.508221 -6.994358 13.626676 -5.713868 -30.926943 0.000000 0.000000 0.000000 31.865031 1.695629 -13.476131 -19.697802 -4.955592 4.020428 0.000000 0.000000 0.000000 -3.697639 11.313492 5.704893 67.854828 13.616287 -3.534131 26.092724 51.306301 11.177285 -20.765253 -1.134173 30.373915 5.234532 0.214526 -0.097091 -28.700350 5.369760 -1.279065 0.000000 0.000000 0.000000 -2.729728 5.385645 -2.501234 -16.408337 3.219683 2.285429 0.000000 0.000000 0.000000 -33.170326 9.477737 1.218877 -3.637772 0.234120 -7.141396 0.000000 0.000000 0.000000 -11.036865 2.367912 -1.152581 -16.069956 0.982613 -3.969877 0.000000 0.000000 0.000000 -4.586703 -6.912060 4.791486 6.148363 5.401994 0.576650 0.000000 0.000000 0.000000 
